<?xml version="1.0" standalone="no"?>
<!DOCTYPE svg PUBLIC "-//W3C//DTD SVG 20010904//EN"
 "http://www.w3.org/TR/2001/REC-SVG-20010904/DTD/svg10.dtd">
<svg version="1.0" xmlns="http://www.w3.org/2000/svg"
 width="1200.000000pt" height="1200.000000pt" viewBox="0 0 1200.000000 1200.000000"
 preserveAspectRatio="xMidYMid meet">

<g transform="translate(0.000000,1200.000000) scale(0.100000,-0.100000)"
fill="#000000" stroke="none">
<path d="M6905 11374 c-22 -8 -102 -31 -179 -50 -76 -20 -168 -47 -205 -61
-244 -92 -694 -108 -1026 -37 -38 8 -144 31 -235 49 -91 19 -206 46 -257 59
l-91 23 -191 -104 -191 -105 0 -66 c0 -71 15 -251 31 -371 5 -41 23 -113 40
-160 17 -47 38 -111 46 -141 8 -30 21 -62 28 -70 7 -8 32 -53 56 -100 106
-205 378 -418 677 -529 146 -55 504 -142 519 -127 2 2 -58 52 -134 112 -203
160 -420 352 -483 425 -30 35 -105 114 -166 174 -60 61 -151 163 -200 227
l-90 117 8 63 c4 35 8 91 9 125 0 35 5 66 10 69 6 3 38 -8 72 -25 34 -16 125
-48 202 -71 278 -80 526 -105 950 -97 230 4 291 9 417 31 149 26 267 59 372
103 32 13 61 22 64 19 12 -13 -32 -187 -74 -296 -45 -113 -69 -162 -154 -310
-111 -195 -308 -388 -577 -567 l-158 -105 75 7 c213 18 398 71 570 161 199
106 313 205 418 364 64 97 175 316 202 399 10 31 28 83 40 116 48 129 93 456
74 532 -9 37 -13 40 -199 135 -104 54 -199 97 -210 97 -11 0 -38 -7 -60 -15z"/>
<path d="M2303 9908 c-20 -32 -31 -82 -22 -100 11 -21 3 -63 -16 -78 -9 -7
-12 -23 -8 -46 10 -60 -54 -106 -97 -71 -8 7 -33 46 -54 87 -48 91 -43 85 -59
71 -12 -9 -8 -24 24 -90 56 -114 100 -142 168 -106 32 16 61 69 61 110 0 14 4
34 9 43 12 25 23 192 12 192 -6 0 -13 -6 -18 -12z"/>
<path d="M1928 9705 c-9 -9 26 -74 40 -75 16 0 15 5 -4 46 -16 33 -25 40 -36
29z"/>
<path d="M1776 9622 c-3 -5 2 -20 12 -33 24 -29 36 -11 13 20 -11 14 -21 19
-25 13z"/>
<path d="M1910 9582 c-91 -33 -101 -38 -93 -57 6 -18 33 -20 33 -2 0 7 34 23
78 37 94 29 97 30 81 41 -17 11 -10 12 -99 -19z"/>
<path d="M1870 9500 c-26 -26 -25 -46 5 -75 28 -29 43 -30 90 -11 29 12 35 20
35 44 0 16 -8 36 -18 45 -26 24 -87 22 -112 -3z m104 -23 c9 -15 7 -21 -9 -33
-29 -22 -79 -14 -83 12 -6 39 70 57 92 21z"/>
<path d="M1970 9390 c-57 -22 -69 -40 -50 -76 8 -14 21 -29 28 -32 17 -6 121
18 128 30 10 17 -23 18 -66 3 -38 -13 -46 -14 -58 -1 -23 22 -8 42 42 56 26 7
45 18 43 23 -5 17 -19 16 -67 -3z"/>
<path d="M10887 9313 c-13 -21 -36 -57 -51 -81 -52 -84 -244 -459 -290 -569
-26 -62 -67 -150 -90 -195 -173 -335 -298 -600 -403 -853 -45 -109 -75 -169
-108 -220 -18 -27 -47 -77 -64 -109 -27 -52 -29 -60 -16 -70 28 -20 225 -119
229 -115 2 2 157 303 344 669 187 366 428 836 536 1045 151 294 192 383 183
392 -12 12 -235 143 -242 143 -3 0 -15 -17 -28 -37z"/>
<path d="M1100 9220 c-52 -44 -94 -84 -92 -91 1 -6 24 -43 51 -82 197 -292
543 -854 729 -1183 78 -137 253 -503 307 -639 26 -66 49 -123 51 -126 3 -5
293 77 302 85 4 5 -45 130 -104 263 -133 301 -382 716 -720 1198 -84 120 -247
371 -333 514 -30 50 -64 101 -75 115 l-21 25 -95 -79z"/>
<path d="M2033 9272 c-27 -8 -63 -38 -63 -52 0 -5 9 -19 20 -30 11 -11 20 -27
20 -36 0 -9 3 -14 8 -12 31 15 66 29 119 48 35 12 60 26 57 32 -5 8 -22 5 -61
-9 -8 -3 -13 3 -13 15 0 12 -10 28 -22 36 -24 17 -30 18 -65 8z m65 -49 c2
-17 -3 -24 -21 -28 -60 -16 -104 19 -55 43 36 18 72 11 76 -15z"/>
<path d="M7430 8700 c-9 -6 68 -20 112 -21 14 0 84 -26 144 -54 66 -30 94 -51
94 -72 0 -8 -20 1 -52 25 -29 22 -62 42 -73 45 -208 58 -298 74 -320 58 -5 -4
-41 -18 -80 -31 -66 -21 -123 -55 -124 -73 -1 -4 19 4 44 19 54 31 61 25 8 -7
-39 -24 -114 -96 -140 -136 -8 -12 -20 -21 -26 -19 -7 1 -9 1 -5 -1 7 -5 -51
-134 -65 -144 -4 -3 -7 -10 -6 -15 1 -5 -1 -31 -6 -59 -11 -70 -12 -84 -3
-140 5 -27 10 -65 13 -83 2 -18 11 -40 20 -48 8 -8 15 -21 15 -27 1 -7 9 -30
20 -52 23 -47 25 -68 5 -41 -8 11 -15 15 -15 9 0 -29 114 -160 175 -202 128
-89 232 -123 360 -121 286 5 514 254 515 560 0 306 -201 562 -490 623 -80 16
-103 18 -120 7z m34 -143 c9 -15 7 -21 -8 -33 -11 -8 -23 -14 -28 -14 -12 0
-30 41 -24 56 8 20 46 14 60 -9z m-134 4 c0 -6 -5 -13 -10 -16 -15 -9 -1 -27
16 -21 8 3 14 -1 14 -10 0 -20 -27 -29 -45 -14 -18 15 -20 56 -2 63 19 8 27 8
27 -2z m58 -19 c2 -12 -1 -22 -7 -22 -6 0 -11 4 -11 9 0 5 -3 17 -7 27 -4 12
-2 15 8 12 8 -2 15 -14 17 -26z m130 16 c9 -9 12 -9 12 2 0 9 3 11 10 4 6 -6
6 -21 1 -39 -7 -26 -10 -27 -16 -12 -6 15 -10 16 -16 5 -12 -19 -30 3 -23 30
7 25 15 27 32 10z m107 -39 c8 -33 -1 -51 -15 -30 -4 8 -15 11 -24 8 -21 -8
-21 11 1 35 23 25 30 23 38 -13z m214 -6 c45 -52 38 -64 -9 -15 -22 22 -40 43
-40 46 0 15 20 3 49 -31z m-572 -5 c26 -24 30 -43 8 -34 -9 3 -15 0 -15 -9 0
-20 -16 -19 -24 1 -8 21 -8 64 1 64 4 0 17 -10 30 -22z m418 9 c17 -13 17 -15
-3 -35 -28 -28 -47 -29 -32 -3 5 11 7 27 4 35 -8 20 6 21 31 3z m-469 -52 c22
-34 8 -47 -16 -15 -22 28 -25 40 -10 40 5 0 17 -11 26 -25z m524 11 c0 -8 -5
-18 -11 -22 -6 -3 -9 -15 -6 -25 6 -22 -6 -25 -22 -5 -10 12 -9 20 4 40 19 29
35 34 35 12z m-118 -44 c107 -49 183 -152 208 -285 29 -158 -46 -320 -188
-404 -43 -25 -56 -27 -147 -28 -92 0 -104 2 -152 29 -64 35 -144 112 -176 170
-13 24 -32 73 -42 110 -16 60 -17 76 -6 149 22 140 87 229 202 273 88 34 206
28 301 -14z m-452 19 c0 -6 -5 -13 -10 -16 -6 -4 -8 -11 -4 -16 4 -6 11 -6 20
2 21 17 31 2 12 -18 -28 -27 -69 5 -54 42 6 16 36 21 36 6z m721 -14 c-13 -13
-26 -3 -16 12 3 6 11 8 17 5 6 -4 6 -10 -1 -17z m-95 -11 c21 -21 19 -42 -3
-25 -9 8 -14 9 -10 2 4 -6 3 -21 -1 -33 l-8 -21 -18 20 c-18 19 -18 22 -2 46
19 29 22 30 42 11z m124 -32 c0 -8 -4 -12 -10 -9 -5 3 -10 10 -10 16 0 5 5 9
10 9 6 0 10 -7 10 -16z m-782 -16 c18 -18 14 -42 -9 -56 -16 -10 -24 -10 -35
-1 -25 21 -10 69 21 69 6 0 16 -5 23 -12z m722 -37 c0 -4 -13 -12 -30 -18 -25
-9 -30 -9 -30 3 0 8 5 14 10 14 6 0 10 10 10 22 0 20 1 21 20 3 11 -10 20 -21
20 -24z m-750 -46 c8 -10 8 -20 -1 -37 -11 -21 -13 -21 -19 -3 -4 13 -9 15
-14 7 -11 -18 -24 -14 -31 8 -13 42 36 60 65 25z m755 -12 c-21 -15 -45 -17
-45 -5 0 12 43 31 54 24 5 -3 1 -11 -9 -19z m29 -36 c15 -11 17 -18 8 -33 -11
-18 -13 -17 -16 8 0 6 -7 13 -14 16 -9 3 -11 -3 -6 -22 7 -30 -10 -36 -25 -9
-11 20 3 53 22 53 7 0 21 -6 31 -13z m-808 -52 c0 -39 -6 -42 -41 -19 -42 27
-32 45 31 53 5 0 10 -15 10 -34z m831 -42 c2 -6 -7 -19 -22 -29 -28 -18 -45
-13 -27 9 9 10 8 17 -1 26 -10 10 -6 12 17 9 16 -2 31 -8 33 -15z m-850 -39
c8 -21 -13 -42 -28 -27 -13 13 -5 43 11 43 6 0 13 -7 17 -16z m848 -47 c0 -26
-20 -25 -23 2 -3 16 1 22 10 19 7 -3 13 -12 13 -21z m-810 -88 c7 -11 -32 -59
-47 -59 -5 0 -7 9 -3 19 3 11 1 22 -5 26 -5 3 -10 10 -10 16 0 13 57 11 65 -2z
m798 -39 c11 -10 -1 -50 -15 -50 -5 0 -8 6 -5 14 4 9 0 12 -13 9 -21 -6 -34
11 -26 33 6 15 40 12 59 -6z m97 10 c0 -5 -5 -10 -11 -10 -5 0 -7 5 -4 10 3 6
8 10 11 10 2 0 4 -4 4 -10z m-870 -35 c15 -18 6 -45 -15 -45 -8 0 -15 -5 -15
-11 0 -5 -5 -7 -11 -4 -6 4 -8 13 -5 20 3 8 0 16 -7 19 -8 3 -6 10 7 20 24 20
30 20 46 1z m736 -35 c25 -10 26 -12 9 -24 -10 -7 -15 -18 -11 -24 12 -19 -19
-14 -38 7 -9 10 -14 25 -10 35 7 19 13 20 50 6z m-696 -25 c11 -13 11 -20 0
-40 -15 -27 -30 -31 -48 -13 -23 23 -7 68 24 68 6 0 17 -7 24 -15z m656 -36
c18 -17 21 -26 13 -40 -13 -24 -31 -24 -53 0 -14 15 -15 24 -6 40 13 26 18 26
46 0z m-612 -63 c-20 -27 -32 -29 -47 -5 -7 11 -4 24 8 43 18 27 18 27 38 8
19 -20 19 -21 1 -46z m720 32 c-10 -18 -19 -28 -21 -21 -5 15 15 53 28 53 5 0
2 -15 -7 -32z m-878 -5 c27 -43 149 -143 172 -143 7 0 12 -4 12 -10 0 -5 4
-10 9 -10 5 0 30 -10 57 -22 62 -27 69 -29 184 -31 93 -2 117 3 235 48 15 6
17 5 10 -3 -19 -21 -159 -64 -221 -69 -40 -3 -87 2 -130 13 -67 16 -193 67
-204 82 -3 4 -25 22 -50 41 -39 30 -110 110 -110 126 0 14 20 2 36 -22z m744
-54 c0 -17 -18 -9 -34 16 -25 38 -18 53 9 22 14 -15 25 -32 25 -38z m-522 18
c15 6 15 1 0 -32 -11 -24 -38 -35 -38 -15 0 6 -7 10 -15 10 -19 0 -19 5 2 36
14 22 18 24 27 12 6 -8 17 -13 24 -11z m492 -43 c0 -17 -12 -18 -27 -3 -9 9
-10 7 -6 -10 9 -33 -14 -25 -26 10 -14 40 -14 39 4 39 8 0 15 6 15 13 1 16 40
-32 40 -49z m-447 -20 c-8 -13 -19 -24 -24 -24 -6 0 -6 54 0 79 1 2 10 -4 21
-14 18 -16 18 -19 3 -41z m577 45 c0 -5 -5 -7 -12 -3 -7 5 -9 2 -5 -9 4 -12 2
-14 -10 -10 -12 5 -15 2 -10 -10 4 -11 1 -17 -8 -17 -8 0 -15 -7 -15 -15 0 -9
-6 -12 -15 -9 -20 8 -45 -13 -38 -32 3 -8 0 -14 -7 -14 -6 0 -8 5 -5 10 3 6 1
10 -5 10 -12 0 110 109 123 109 4 1 7 -4 7 -10z m-201 -31 c10 -27 -3 -58 -25
-58 -19 0 -39 49 -24 64 7 7 10 5 10 -6 0 -9 5 -20 11 -24 9 -5 10 1 5 20 -8
32 11 36 23 4z m-333 -30 c-7 -37 -11 -42 -24 -34 -12 7 7 66 21 66 5 0 7 -14
3 -32z m44 12 c0 -5 7 -7 15 -4 12 5 14 0 9 -27 -9 -44 -13 -48 -30 -25 -8 11
-14 14 -14 7 0 -7 -4 -10 -8 -7 -14 8 -1 66 14 66 8 0 14 -4 14 -10z m146 -8
c-3 -3 1 -13 10 -23 9 -10 13 -23 9 -28 -8 -14 -55 -14 -55 -1 0 6 8 10 18 10
16 1 16 1 0 11 -21 12 -24 35 -5 42 14 5 31 -2 23 -11z m80 -6 c3 -14 3 -30
-1 -35 -9 -16 -35 -13 -35 4 0 8 5 15 11 15 6 0 8 9 4 20 -4 11 -2 20 4 20 6
0 13 -11 17 -24z m-132 -8 c8 -13 8 -23 0 -35 -17 -28 -42 -27 -55 1 -21 46
28 76 55 34z"/>
<path d="M7430 8550 c0 -5 5 -10 11 -10 5 0 7 5 4 10 -3 6 -8 10 -11 10 -2 0
-4 -4 -4 -10z"/>
<path d="M7220 8126 l0 -186 28 -2 c32 -2 52 -3 237 -12 77 -3 164 -9 193 -12
l52 -5 0 186 c0 140 -3 187 -12 190 -7 2 -78 6 -158 10 -80 3 -189 8 -242 11
l-98 6 0 -186z m159 101 c47 -35 109 -79 136 -98 50 -33 110 -77 173 -125 43
-33 45 -74 3 -74 -20 0 -67 28 -162 96 -74 53 -168 119 -209 147 -84 56 -90
62 -90 95 0 18 5 22 31 22 23 0 55 -17 118 -63z"/>
<path d="M7580 7780 c0 -5 5 -10 11 -10 5 0 7 5 4 10 -3 6 -8 10 -11 10 -2 0
-4 -4 -4 -10z"/>
<path d="M7105 8350 c3 -5 8 -10 11 -10 2 0 4 5 4 10 0 6 -5 10 -11 10 -5 0
-7 -4 -4 -10z"/>
<path d="M7137 7836 c-4 -10 -1 -13 8 -9 8 3 12 9 9 14 -7 12 -11 11 -17 -5z"/>
<path d="M7795 7800 c3 -5 10 -10 16 -10 5 0 9 5 9 10 0 6 -7 10 -16 10 -8 0
-12 -4 -9 -10z"/>
<path d="M7466 7653 c-11 -11 -6 -23 9 -23 8 0 15 4 15 9 0 13 -16 22 -24 14z"/>
<path d="M7090 8555 c-14 -8 -21 -14 -16 -15 4 0 -6 -16 -23 -35 -49 -56 -36
-53 21 4 54 54 60 69 18 46z"/>
<path d="M4515 8496 c24 -16 142 -76 287 -145 80 -38 106 -55 102 -66 -4 -8
-1 -15 5 -15 6 0 8 -6 5 -13 -7 -20 -84 -49 -136 -51 -26 -1 -51 -6 -55 -11
-5 -4 5 -5 22 -1 47 12 26 -1 -49 -29 -38 -14 -77 -23 -87 -20 -10 4 -27 1
-36 -5 -15 -9 -15 -10 6 -4 36 10 17 -13 -32 -36 -22 -11 -50 -20 -61 -20 -12
0 -83 31 -158 69 -130 65 -268 124 -275 117 -2 -1 34 -20 79 -41 46 -21 141
-67 212 -102 70 -34 136 -63 145 -63 10 0 45 14 79 30 34 17 67 30 72 30 6 0
18 4 28 10 24 13 126 53 196 76 72 23 111 56 97 81 -5 10 -31 27 -58 37 -80
32 -172 74 -285 132 -106 53 -141 67 -103 40z"/>
<path d="M4448 8493 c16 -6 -50 -39 -241 -119 -75 -32 -136 -63 -134 -68 5
-16 37 -19 37 -4 0 7 35 26 78 42 42 16 100 39 127 52 74 34 154 64 171 64 22
0 367 -171 382 -189 11 -14 11 -12 2 7 -6 13 -21 27 -33 31 -12 5 -51 26 -87
46 -122 71 -248 132 -282 138 -18 3 -27 3 -20 0z"/>
<path d="M4289 8433 c-13 -17 -13 -17 6 -3 11 8 22 16 24 17 2 2 0 3 -6 3 -6
0 -17 -8 -24 -17z"/>
<path d="M4515 8374 c11 -9 38 -25 60 -35 22 -11 50 -26 63 -33 21 -12 21 -14
5 -20 -13 -6 -15 -9 -4 -15 9 -6 3 -12 -20 -20 -41 -14 -40 -14 -32 6 5 13 2
15 -11 10 -10 -4 -21 -7 -24 -7 -4 0 -1 -4 7 -9 11 -7 6 -13 -20 -27 -48 -25
-65 -26 -102 -7 -48 26 -97 42 -97 32 0 -5 5 -9 11 -9 6 0 38 -14 71 -30 l59
-30 82 29 c135 49 147 55 147 72 0 10 -22 26 -62 44 -35 15 -80 36 -101 46
-45 23 -59 24 -32 3z"/>
<path d="M6965 8379 c-4 -6 -5 -12 -2 -15 2 -3 7 2 10 11 7 17 1 20 -8 4z"/>
<path d="M4140 8369 c0 -5 5 -7 10 -4 6 3 10 8 10 11 0 2 -4 4 -10 4 -5 0 -10
-5 -10 -11z"/>
<path d="M4434 8361 c14 -5 5 -12 -43 -31 -33 -14 -63 -30 -66 -38 -2 -7 1
-12 8 -10 6 1 43 -13 80 -31 38 -18 71 -30 74 -28 3 3 -21 18 -52 32 -31 15
-54 32 -52 38 2 7 27 21 56 31 l52 19 50 -23 c27 -13 49 -27 49 -32 0 -4 6 -8
12 -8 14 0 -19 32 -69 68 -22 15 -46 22 -75 21 -29 0 -37 -3 -24 -8z"/>
<path d="M4326 8335 c-25 -19 -17 -19 25 0 24 10 28 14 14 14 -11 0 -29 -6
-39 -14z"/>
<path d="M4025 8280 c3 -5 8 -10 11 -10 2 0 4 5 4 10 0 6 -5 10 -11 10 -5 0
-7 -4 -4 -10z"/>
<path d="M4110 8276 c0 -7 113 -57 118 -52 2 3 -19 16 -47 30 -47 24 -71 32
-71 22z"/>
<path d="M4241 8216 c12 -13 211 -106 235 -111 l29 -5 -25 12 c-177 85 -253
118 -239 104z"/>
<path d="M4688 8183 c7 -3 16 -2 19 1 4 3 -2 6 -13 5 -11 0 -14 -3 -6 -6z"/>
<path d="M4466 8018 c4 -6 9 -50 10 -97 1 -47 3 -88 3 -90 1 -2 7 1 14 7 8 7
18 7 27 2 25 -16 59 -11 70 9 5 11 10 37 10 59 0 50 -26 77 -68 67 -32 -6 -47
11 -36 40 4 10 0 15 -16 15 -14 0 -19 -4 -14 -12z m93 -87 c21 -21 23 -72 2
-79 -9 -3 -11 0 -7 7 6 8 0 10 -17 6 -20 -6 -26 -2 -31 20 -14 57 16 83 53 46z"/>
<path d="M4093 7949 c10 -90 11 -93 39 -103 22 -8 32 -6 48 9 16 15 20 30 20
82 0 84 -22 82 -24 -2 -1 -62 -10 -74 -41 -51 -15 11 -20 26 -20 62 0 31 -5
49 -14 52 -10 3 -12 -7 -8 -49z m42 -87 c-3 -3 -11 0 -18 7 -9 10 -8 11 6 5
10 -3 15 -9 12 -12z"/>
<path d="M4230 7980 c0 -11 5 -20 11 -20 8 0 8 -4 2 -12 -14 -18 -14 -100 0
-95 6 2 11 22 11 45 2 55 18 72 47 46 l22 -19 -5 27 c-4 20 -1 25 9 21 11 -5
13 -16 8 -51 -4 -24 -9 -51 -12 -58 -3 -8 0 -14 6 -14 6 0 11 15 11 33 0 17 7
41 16 52 12 16 18 17 34 8 16 -11 19 -9 23 10 2 12 5 -8 6 -45 0 -38 5 -68 9
-68 10 0 15 74 7 111 -6 27 -9 29 -50 24 -25 -3 -46 -1 -50 5 -4 6 -20 8 -40
4 -19 -3 -35 -1 -39 5 -11 18 -26 13 -26 -9z"/>
<path d="M4636 7963 c4 -10 7 -44 5 -75 -1 -36 2 -58 8 -58 6 0 11 15 11 34 0
48 9 66 37 77 13 5 21 14 18 19 -5 8 -12 7 -22 -2 -12 -10 -17 -9 -24 5 -14
23 -44 23 -33 0z"/>
<path d="M4763 7960 c1 -3 -4 -14 -10 -26 -13 -22 -13 -81 0 -101 5 -7 23 -13
42 -13 36 0 75 36 75 71 0 32 -23 69 -44 73 -28 5 -65 3 -63 -4z m75 -12 c16
-16 15 -83 0 -95 -7 -6 -29 -9 -48 -8 -34 2 -35 2 -31 41 5 63 26 79 61 44 24
-24 27 -14 3 12 -18 20 -4 25 15 6z"/>
<path d="M3785 2314 l-47 -36 -56 28 c-49 25 -69 29 -137 29 -65 0 -89 -5
-128 -24 -56 -29 -136 -110 -166 -169 -33 -64 -53 -168 -48 -242 l4 -65 -47
-45 c-45 -43 -47 -48 -54 -113 -4 -37 -4 -72 -1 -76 2 -5 26 -12 51 -16 26 -3
52 -9 58 -11 7 -3 33 11 59 31 l47 36 64 -31 c60 -30 71 -32 148 -28 100 4
161 30 229 98 85 85 132 230 111 345 -10 56 -9 61 11 78 84 71 77 54 81 189 1
15 -6 24 -19 26 -18 2 -18 2 -3 -8 13 -8 16 -21 11 -68 -7 -70 -9 -74 -58
-111 l-40 -29 0 -119 c0 -112 -2 -122 -32 -185 -57 -121 -153 -189 -276 -196
-78 -5 -143 10 -188 44 l-32 23 -51 -40 c-35 -28 -56 -39 -71 -35 -11 3 -29 6
-41 6 -43 0 -53 20 -43 85 9 53 15 64 55 100 l46 40 1 111 c2 106 3 113 40
186 39 80 88 132 162 171 31 17 58 22 120 22 69 0 88 -4 136 -29 l57 -28 51
41 c45 35 55 39 77 31 14 -6 33 -10 42 -9 14 0 13 2 -3 8 -58 23 -72 21 -120
-15z"/>
<path d="M3530 2292 c0 -6 5 -12 12 -14 7 -3 9 -12 5 -22 -7 -17 -9 -18 -25
-2 -33 29 -69 17 -39 -13 10 -10 9 -11 -3 -7 -9 3 -23 -5 -34 -21 -18 -25 -18
-26 -1 -39 22 -16 35 -10 35 17 0 21 16 24 40 9 11 -7 12 -12 3 -18 -6 -4 -11
-14 -11 -22 4 -51 -25 -101 -83 -141 -13 -10 -21 -20 -17 -24 9 -9 289 226
285 239 -10 30 -167 84 -167 58z"/>
<path d="M3814 2266 c-7 -18 53 -109 67 -101 15 10 11 25 -18 71 -30 47 -40
53 -49 30z m45 -40 c22 -36 25 -46 14 -46 -8 0 -53 65 -53 75 0 16 21 0 39
-29z"/>
<path d="M3890 2260 c0 -5 5 -10 10 -10 6 0 10 5 10 10 0 6 -4 10 -10 10 -5 0
-10 -4 -10 -10z"/>
<path d="M8760 2242 c-133 -50 -200 -136 -221 -282 -23 -156 69 -337 205 -407
74 -38 198 -44 280 -13 174 66 245 245 175 447 -66 192 -280 316 -439 255z
m197 -54 c73 -27 154 -105 191 -185 23 -50 27 -71 27 -148 -1 -77 -5 -97 -27
-140 -52 -100 -133 -149 -248 -149 -63 -1 -84 4 -132 27 -67 33 -121 90 -157
166 -36 77 -38 211 -3 286 65 141 203 198 349 143z"/>
<path d="M8850 2153 c0 -13 5 -23 10 -23 13 0 13 11 0 30 -8 12 -10 11 -10 -7z"/>
<path d="M8888 2153 c-4 -13 3 -22 19 -30 21 -10 24 -10 19 4 -4 9 -1 21 6 26
9 6 7 7 -6 3 -11 -4 -23 -2 -26 5 -5 7 -9 4 -12 -8z"/>
<path d="M8790 2143 c0 -13 -3 -14 -12 -5 -17 17 -28 15 -21 -5 5 -12 2 -15
-10 -10 -9 3 -17 2 -17 -3 0 -18 20 -21 41 -6 12 8 28 12 36 9 13 -5 13 -2 4
15 -14 26 -21 28 -21 5z"/>
<path d="M8953 2125 c-3 -9 -3 -18 0 -21 9 -9 27 6 27 22 0 19 -19 18 -27 -1z"/>
<path d="M8697 2113 c-5 -7 -5 -17 -2 -23 4 -6 -1 -7 -12 -3 -16 6 -17 5 -3
-11 8 -11 16 -14 18 -7 2 6 10 11 18 11 8 0 14 5 14 11 0 5 -4 8 -9 4 -5 -3
-11 3 -13 12 -3 13 -6 15 -11 6z"/>
<path d="M8992 2108 c-8 -8 -7 -14 3 -24 17 -18 22 -17 28 0 8 20 -16 39 -31
24z"/>
<path d="M9024 2069 c-8 -14 11 -33 25 -25 16 10 13 36 -3 36 -8 0 -18 -5 -22
-11z"/>
<path d="M8650 2062 c0 -5 7 -16 16 -23 14 -12 16 -11 13 5 -4 20 -29 35 -29
18z"/>
<path d="M9063 2043 c-19 -7 -16 -25 11 -58 18 -22 28 -27 36 -19 18 17 2 43
-23 36 -20 -5 -21 -4 -8 12 15 18 5 37 -16 29z"/>
<path d="M8630 2026 c0 -15 18 -31 26 -23 7 7 -7 37 -17 37 -5 0 -9 -6 -9 -14z"/>
<path d="M8773 1967 c-46 -23 -83 -44 -83 -48 0 -3 43 -24 95 -47 l96 -40 85
45 c47 25 82 49 77 53 -7 7 -180 81 -186 79 -1 0 -39 -19 -84 -42z m158 -9
c30 -12 58 -25 63 -29 5 -4 -20 -22 -54 -39 l-63 -32 -69 28 c-37 15 -68 30
-68 34 0 8 102 59 121 59 9 1 41 -9 70 -21z"/>
<path d="M8823 1943 c-18 -9 -33 -20 -33 -23 0 -4 20 -15 44 -24 41 -16 46
-16 80 0 20 10 36 21 36 24 0 8 -67 40 -83 39 -7 0 -27 -8 -44 -16z m67 -13
c12 -8 13 -11 1 -19 -15 -10 -51 -3 -51 9 0 7 16 17 30 19 3 0 12 -4 20 -9z"/>
<path d="M8615 1990 c-4 -6 -1 -17 5 -26 10 -11 16 -12 26 -3 11 9 11 15 3 25
-14 17 -25 18 -34 4z"/>
<path d="M8621 1904 c-1 -43 25 -128 49 -156 20 -22 20 -22 0 14 -12 20 -27
67 -35 105 -8 41 -13 56 -14 37z"/>
<path d="M9120 1867 c0 -68 -9 -101 -44 -151 -13 -20 -15 -27 -6 -24 30 10 62
97 62 165 0 36 -3 67 -6 71 -3 3 -6 -24 -6 -61z"/>
<path d="M8878 1815 c-3 -4 -28 -8 -55 -9 -31 -1 -47 -6 -45 -14 3 -16 -15
-16 -21 1 -2 6 -8 8 -13 4 -4 -4 -3 -16 3 -25 12 -19 52 -19 66 1 7 9 10 9 14
0 7 -18 21 -16 26 5 4 16 5 16 6 0 1 -15 10 -18 51 -18 40 0 48 3 44 15 -4 8
-2 15 4 15 5 0 12 -7 16 -15 6 -17 42 -20 51 -5 14 22 -17 40 -64 38 -25 -1
-53 1 -62 5 -8 4 -18 5 -21 2z m127 -24 c3 -5 1 -12 -5 -16 -5 -3 -10 1 -10 9
0 18 6 21 15 7z"/>
<path d="M8705 1700 c10 -11 20 -20 23 -20 3 0 -3 9 -13 20 -10 11 -20 20 -23
20 -3 0 3 -9 13 -20z"/>
<path d="M9010 1672 c0 -4 9 -13 20 -20 22 -13 27 -3 8 16 -14 14 -28 16 -28
4z"/>
<path d="M8757 1663 c-13 -12 -7 -23 12 -23 11 0 21 -5 23 -11 2 -5 11 -11 20
-12 9 -2 23 -9 32 -16 12 -10 20 -11 29 -2 10 7 17 7 24 0 7 -7 17 -8 25 -3 7
5 21 7 31 6 10 -2 17 3 17 14 0 14 3 14 15 4 12 -10 19 -10 27 -2 9 9 8 12 -6
12 -12 0 -16 5 -12 16 10 25 -17 11 -31 -17 -7 -13 -13 -18 -13 -11 0 9 -11
13 -33 11 -18 -2 -37 0 -44 4 -6 4 -18 4 -27 1 -9 -3 -16 -1 -16 5 0 6 -9 11
-19 11 -11 0 -23 5 -26 10 -7 12 -19 13 -28 3z"/>
<path d="M3773 2239 c-9 -9 -3 -25 20 -60 18 -27 36 -49 40 -49 18 0 17 32 -2
64 -29 46 -45 58 -58 45z m45 -44 c24 -37 26 -45 15 -45 -8 0 -53 65 -53 75 0
15 18 1 38 -30z"/>
<path d="M3754 2196 c5 -16 4 -17 -8 -6 -12 10 -18 9 -30 -2 -12 -12 -10 -20
15 -56 15 -23 24 -44 19 -47 -5 -3 -19 13 -32 35 -13 22 -27 40 -31 40 -9 0 3
-24 36 -68 21 -27 26 -30 36 -18 10 12 7 22 -13 53 -33 48 -34 68 -1 28 13
-16 24 -26 25 -21 0 5 9 1 20 -9 29 -27 24 -6 -11 45 -17 25 -28 36 -25 26z"/>
<path d="M3294 2143 c-15 -25 -34 -69 -41 -97 -14 -54 -18 -196 -5 -196 7 0
90 65 121 95 11 11 9 20 -18 60 -28 42 -31 50 -21 83 13 47 13 102 0 102 -5 0
-21 -21 -36 -47z"/>
<path d="M3657 2144 c-4 -4 -2 -13 5 -21 6 -7 8 -17 4 -21 -4 -4 -12 1 -17 11
-6 9 -14 15 -19 12 -5 -3 5 -28 22 -55 31 -50 46 -65 34 -34 -5 12 -2 15 10
10 12 -5 15 -2 10 10 -5 14 -4 15 9 4 23 -19 18 -3 -12 38 -39 53 -39 53 -46
46z"/>
<path d="M3582 2053 l-33 -28 24 -29 23 -28 34 31 c19 17 30 31 25 31 -6 0
-17 11 -26 25 l-15 25 -32 -27z m46 -14 c7 -12 11 -24 8 -27 -6 -6 -35 27 -36
41 0 14 15 7 28 -14z m-34 -25 c9 -24 7 -28 -9 -14 -17 14 -20 30 -6 30 5 0
12 -7 15 -16z"/>
<path d="M3721 1999 c-60 -49 -60 -51 -42 -70 12 -13 29 -19 47 -17 28 3 29 2
26 -37 -2 -22 -12 -52 -22 -67 -11 -15 -20 -31 -20 -36 0 -5 -15 -25 -34 -44
-37 -38 -61 -77 -52 -85 10 -10 95 47 130 89 48 56 77 137 79 221 2 58 -1 71
-17 83 -11 8 -23 14 -27 14 -4 0 -35 -23 -68 -51z"/>
<path d="M3490 2008 c-14 -11 -36 -29 -49 -39 -26 -21 -28 -12 24 -91 14 -23
15 -28 3 -28 -8 0 -24 18 -37 40 -12 22 -27 40 -33 40 -6 0 -4 -9 4 -22 8 -13
22 -35 32 -50 10 -15 13 -29 8 -32 -6 -3 -24 16 -41 42 -18 27 -31 40 -31 30
0 -11 -5 -15 -15 -11 -10 3 -4 -13 16 -46 18 -28 35 -51 39 -51 4 0 28 17 54
38 29 23 41 38 31 40 -8 2 -17 13 -21 25 -4 11 -13 27 -20 35 -16 16 -18 32
-4 32 5 0 22 -18 36 -40 15 -22 31 -40 36 -40 4 0 1 11 -8 25 -10 16 -12 25
-5 25 6 0 14 -7 17 -15 4 -8 10 -15 16 -15 5 0 -5 21 -22 46 -18 25 -30 47
-28 50 2 2 19 -17 37 -42 26 -38 34 -44 47 -33 13 10 13 15 -1 35 -56 87 -49
83 -85 52z m58 -34 c28 -43 23 -58 -5 -17 -30 43 -35 53 -26 53 4 0 18 -16 31
-36z m-58 -15 c0 -6 -4 -7 -10 -4 -5 3 -10 11 -10 16 0 6 5 7 10 4 6 -3 10
-11 10 -16z m-91 -115 c12 -20 20 -38 18 -41 -4 -4 -47 63 -47 73 0 11 10 1
29 -32z"/>
<path d="M3320 1864 c0 -3 5 -15 11 -27 12 -22 12 -22 -10 -3 -32 29 -36 13
-7 -37 29 -48 31 -57 16 -57 -6 0 -15 10 -21 23 -22 50 -37 69 -44 58 -3 -7 8
-34 26 -62 l32 -51 28 30 c16 17 34 32 41 34 8 3 1 20 -22 51 -29 42 -50 58
-50 41z"/>
<path d="M3434 1764 c-43 -36 -79 -70 -79 -77 0 -35 154 -80 219 -63 25 6 26
10 26 74 0 66 -1 68 -40 100 -21 17 -41 32 -43 32 -2 0 -40 -30 -83 -66z"/>
<path d="M3232 1787 c-12 -14 1 -35 33 -53 10 -6 21 -17 24 -25 4 -12 2 -12
-12 0 -10 7 -17 9 -17 3 0 -15 28 -35 40 -27 19 12 10 33 -27 64 -21 17 -30
28 -20 25 13 -5 16 -2 11 10 -7 19 -18 20 -32 3z"/>
<path d="M3200 1725 c-11 -13 -11 -20 0 -40 15 -27 18 -29 38 -16 11 6 10 14
-6 40 -17 28 -21 30 -32 16z m24 -21 c11 -28 6 -38 -9 -18 -8 10 -15 22 -15
27 0 13 18 7 24 -9z"/>
<path d="M3160 1654 c0 -8 5 -12 10 -9 6 3 10 10 10 16 0 5 -4 9 -10 9 -5 0
-10 -7 -10 -16z"/>
</g>
</svg>
