<?xml version="1.0" standalone="no"?>
<!DOCTYPE svg PUBLIC "-//W3C//DTD SVG 20010904//EN"
 "http://www.w3.org/TR/2001/REC-SVG-20010904/DTD/svg10.dtd">
<svg version="1.0" xmlns="http://www.w3.org/2000/svg"
 width="920.000000pt" height="1054.000000pt" viewBox="0 0 920.000000 1054.000000"
 preserveAspectRatio="xMidYMid meet">

<g transform="translate(0.000000,1054.000000) scale(0.100000,-0.100000)"
fill="#000000" stroke="none">
<path d="M3940 9950 c-96 -4 -212 -8 -257 -9 l-83 -1 0 -59 c0 -117 74 -309
180 -467 118 -173 238 -304 330 -358 276 -162 699 -141 964 48 77 55 112 93
206 226 137 193 230 407 230 529 l0 40 -67 20 c-38 11 -104 24 -148 29 -94 11
-1100 12 -1355 2z"/>
<path d="M3459 9874 c-21 -23 -22 -26 -5 -23 19 4 56 49 39 49 -5 0 -20 -12
-34 -26z"/>
<path d="M5640 9856 c0 -1 5 -17 11 -35 9 -25 14 -29 25 -21 10 9 20 6 43 -11
25 -18 31 -31 33 -63 1 -37 2 -38 5 -8 2 17 7 32 9 32 6 0 244 -125 314 -165
87 -49 206 -105 574 -269 32 -14 61 -25 63 -23 2 3 -65 35 -149 72 -142 63
-458 217 -538 262 -19 11 -90 50 -158 87 -68 38 -143 86 -168 107 -39 34 -64
48 -64 35z"/>
<path d="M3320 9669 c-145 -124 -234 -186 -380 -263 -265 -141 -514 -246 -895
-377 -77 -27 -134 -49 -127 -49 17 0 283 82 372 115 36 13 117 42 180 65 117
42 355 147 503 222 45 22 140 79 210 127 71 47 142 93 158 101 16 8 29 21 29
28 0 7 13 21 30 30 19 11 30 25 30 39 0 12 3 28 6 37 11 29 -10 15 -116 -75z"/>
<path d="M5683 9681 c-9 -35 -9 -38 9 -33 10 2 28 -4 39 -14 16 -14 19 -26 15
-63 l-5 -46 10 42 10 42 92 -49 c86 -46 336 -158 522 -235 44 -18 121 -49 170
-70 214 -88 389 -154 623 -235 67 -23 126 -48 129 -54 8 -12 16 -56 11 -56
-15 0 -633 216 -798 278 -58 22 -136 52 -175 67 -238 90 -593 254 -608 280
-13 24 -56 18 -67 -7 -101 -249 -141 -321 -262 -464 -61 -73 -68 -86 -68 -124
0 -26 -7 -52 -17 -64 -10 -12 -11 -15 -3 -8 8 6 16 12 19 12 4 0 8 -165 10
-368 2 -202 5 -375 7 -384 21 -117 27 -2140 7 -2398 -16 -197 -24 -903 -13
-1120 12 -247 20 -1656 10 -1880 -16 -385 -33 -2359 -22 -2543 l4 -57 588 0
c519 1 589 3 594 16 9 24 7 109 -3 120 -5 5 -5 62 0 129 17 265 31 789 25 940
-4 88 -11 477 -16 865 -5 388 -13 795 -19 905 -6 110 -16 504 -21 875 -14 875
-24 1169 -49 1355 -59 440 -58 955 4 1480 19 160 43 405 55 545 11 140 27 341
36 445 8 105 22 246 30 315 33 268 36 338 30 621 l-5 285 82 -27 82 -28 7 -86
c22 -286 14 -553 -26 -840 -14 -99 -33 -236 -41 -305 -8 -69 -26 -195 -40
-280 -141 -888 -144 -906 -155 -1053 -13 -166 -13 -567 0 -937 24 -728 32
-905 46 -1055 11 -113 18 -366 24 -865 4 -388 11 -734 14 -770 11 -121 35
-644 41 -880 3 -129 8 -301 11 -383 9 -250 5 -720 -7 -980 -10 -202 -10 -252
1 -272 8 -16 11 -42 7 -76 l-6 -51 41 6 c67 11 137 54 160 100 22 43 22 51
-28 1016 -62 1215 -103 1977 -110 2075 -25 312 -24 1493 1 1720 20 189 42 435
55 635 13 192 30 326 65 500 35 174 38 185 52 169 26 -32 73 -140 96 -219 32
-110 40 -114 227 -113 122 0 148 4 270 36 198 53 373 119 525 199 114 60 228
131 266 168 37 35 39 40 39 97 0 79 -22 194 -72 373 -22 80 -46 168 -54 195
-13 50 -56 270 -134 690 -52 277 -119 548 -163 659 -47 119 -91 187 -170 267
-75 75 -339 259 -415 289 -26 10 -87 35 -137 54 -112 44 -203 82 -325 135 -52
23 -180 79 -285 124 -220 94 -760 359 -791 388 -30 28 -40 24 -51 -20z m106
-1358 c-1 -38 -1 -38 -9 -9 -8 27 -6 46 6 46 2 0 4 -17 3 -37z m323 -23 c-9
-16 -23 -30 -30 -30 -9 0 -6 10 10 29 30 39 42 39 20 1z m-227 -14 c-16 -13
-34 -22 -38 -19 -16 10 -57 -20 -58 -41 0 -12 -5 -30 -10 -41 -7 -15 -8 -9 -4
21 5 41 5 41 -41 59 -59 23 -50 30 11 9 47 -15 49 -15 64 4 15 19 38 27 86 31
17 1 15 -3 -10 -23z m170 -29 c4 5 5 2 1 -5 -10 -17 21 -27 39 -12 18 15 20 0
3 -22 -11 -13 -87 -48 -105 -48 -3 0 6 9 21 21 33 26 32 33 -1 78 l-26 36 30
-28 c16 -15 33 -24 38 -20z m-457 -42 c-16 -14 -23 -25 -16 -27 9 -3 9 -6 0
-12 -7 -4 -15 -1 -18 8 -6 15 46 70 56 59 3 -2 -7 -15 -22 -28z m267 15 c-3
-5 7 -16 22 -24 15 -8 24 -15 18 -15 -5 0 -26 8 -45 19 -23 13 -29 19 -17 20
11 0 15 4 11 12 -4 7 -3 8 5 4 6 -4 9 -11 6 -16z m318 -5 c16 -11 15 -13 -12
-17 -17 -2 -36 -1 -43 4 -9 5 -7 8 7 9 17 1 17 2 3 6 -10 2 -18 8 -18 13 0 10
39 1 63 -15z m-665 -3 c-5 -18 15 -53 27 -48 17 6 40 -20 26 -28 -6 -4 -3 -23
9 -51 11 -25 16 -45 11 -45 -4 0 -15 18 -24 40 l-15 39 -49 -5 -48 -5 37 21
38 20 -20 33 c-24 38 -25 48 -5 41 8 -3 14 -9 13 -12z m604 -72 c22 -36 20
-35 -22 14 -14 16 -19 27 -12 25 7 -3 23 -20 34 -39z m178 -24 c0 -11 10 -30
21 -43 17 -18 19 -24 8 -28 -10 -4 -14 -20 -12 -53 l2 -47 -8 43 c-9 52 -16
60 -61 64 l-35 4 30 8 c17 4 35 9 42 11 10 3 9 15 -2 52 -12 42 -12 46 0 29 8
-11 15 -29 15 -40z m-674 31 c4 -4 20 -7 36 -7 42 0 34 -16 -9 -18 -28 -2 -41
3 -50 17 -10 15 -9 19 2 17 8 -1 18 -5 21 -9z m777 -36 c-25 -21 -30 -50 -12
-68 9 -9 7 -11 -9 -6 -13 3 -19 10 -15 19 3 8 -3 21 -12 28 -17 12 -16 14 11
29 42 22 64 21 37 -2z m-401 -28 c123 -26 229 -116 295 -250 25 -51 28 -69 28
-153 0 -112 -21 -164 -94 -237 -68 -69 -112 -87 -206 -87 -156 0 -280 67 -369
200 -23 35 -46 61 -50 57 -4 -4 -4 1 0 11 4 11 3 17 -2 14 -5 -4 -10 6 -10 20
-1 15 -5 57 -8 95 -3 37 -3 67 1 67 5 0 8 20 8 44 0 25 4 42 9 39 5 -4 6 2 2
13 -4 10 -4 15 0 12 8 -9 80 83 76 97 -2 5 0 7 3 3 4 -4 28 5 54 20 42 24 121
47 174 49 12 0 52 -6 89 -14z m427 -71 c11 -11 9 -12 -15 -6 -47 11 -64 24
-29 22 17 -2 36 -8 44 -16z m-408 -1942 c-1 -80 -5 -148 -9 -152 -4 -4 -69 -5
-145 -1 l-137 6 0 149 0 149 146 -3 146 -3 -1 -145z"/>
<path d="M5878 8084 c-2 -1 -20 -4 -41 -7 -46 -6 -136 -64 -170 -109 -46 -61
-60 -111 -55 -201 5 -99 29 -158 94 -234 57 -66 162 -130 229 -140 l49 -6 -23
24 c-38 41 -8 111 36 83 29 -18 28 -36 -1 -28 -23 5 -26 3 -26 -20 0 -16 6
-26 15 -26 8 0 15 5 15 10 0 6 7 10 15 10 8 0 15 -7 15 -15 0 -9 -7 -18 -15
-21 -32 -13 -13 -23 33 -18 101 12 185 72 234 167 26 50 35 194 15 246 -13 37
-18 38 -42 11 -18 -20 -18 -20 5 -18 33 4 36 -18 3 -25 -15 -3 -36 -9 -45 -12
-26 -10 -34 21 -13 45 16 18 16 18 -4 13 -14 -4 -21 -1 -21 9 0 9 17 19 45 25
31 7 45 7 45 0 0 -6 3 -8 6 -4 8 8 -52 93 -95 134 -56 54 -165 102 -238 106
-35 2 -64 3 -65 1z m80 -58 c26 -53 24 -64 -7 -44 -16 10 -23 10 -33 0 -29
-29 -38 7 -17 67 14 41 28 36 57 -23z m62 7 c0 -14 2 -14 19 1 28 25 39 0 12
-28 -12 -12 -21 -28 -21 -34 0 -7 -6 -12 -14 -12 -8 0 -16 15 -19 38 -3 20 -8
45 -13 56 -6 16 -5 17 14 7 12 -7 22 -19 22 -28z m-162 -3 c28 -37 27 -45 0
-64 -34 -24 -46 -20 -69 26 -20 40 -20 42 -3 55 28 20 48 16 72 -17z m262 -22
c33 -24 38 -38 15 -38 -8 0 -15 5 -15 10 0 6 -8 10 -17 10 -14 0 -13 -3 5 -16
31 -21 28 -40 -3 -20 -14 9 -25 12 -25 7 0 -6 9 -15 20 -21 11 -6 18 -15 15
-21 -7 -10 -65 19 -65 33 0 10 33 78 37 78 2 0 17 -10 33 -22z m-390 -33 c0
-8 -7 -15 -15 -15 -19 0 -19 -11 -2 -34 16 -22 42 -17 42 7 0 26 20 25 23 -1
4 -27 -14 -52 -37 -52 -45 1 -79 68 -49 98 17 17 38 15 38 -3z m324 -49 c138
-81 178 -253 83 -358 -48 -55 -149 -74 -223 -43 -35 14 -35 14 -28 -8 9 -30
14 -34 24 -17 16 26 23 1 11 -41 -15 -48 -43 -51 -51 -4 -5 28 -6 28 -12 8 -3
-13 -12 -23 -18 -23 -14 0 -7 38 14 81 12 23 10 27 -28 61 -46 40 -96 131 -96
174 0 81 45 153 115 186 56 26 148 20 209 -16z m151 8 c18 -28 14 -54 -9 -54
-7 0 -16 -9 -19 -21 -9 -34 -29 -12 -21 24 6 28 5 30 -9 18 -9 -7 -21 -10 -27
-6 -10 6 45 64 61 65 4 0 14 -12 24 -26z m-539 -51 c-6 -26 -5 -27 8 -9 8 10
20 15 26 11 8 -5 8 -10 0 -20 -8 -10 -6 -15 9 -20 21 -6 30 -35 11 -35 -18 0
-90 32 -90 41 0 16 23 59 33 59 5 0 6 -12 3 -27z m63 -233 l-24 -21 27 4 c16
2 33 -2 39 -10 7 -7 10 -15 8 -16 -51 -33 -126 -42 -83 -10 18 13 17 14 -8 8
-33 -8 -38 10 -10 31 16 13 15 14 -7 11 -41 -4 -34 20 11 36 36 12 45 12 57 1
12 -11 11 -16 -10 -34z m516 -42 c44 -29 45 -48 4 -48 l-31 0 23 -18 c39 -32
4 -33 -40 -1 -45 32 -46 49 -3 49 23 1 25 2 10 11 -20 11 -24 29 -8 29 6 0 26
-10 45 -22z m-422 -94 c-29 -38 -39 -41 -65 -17 -25 22 -23 42 9 75 l27 28 27
-26 28 -27 -26 -33z m342 36 c3 -6 -1 -13 -9 -16 -9 -3 -16 -10 -16 -15 0 -5
9 -4 20 3 26 16 40 0 16 -18 -25 -18 -14 -29 13 -13 25 16 39 5 21 -16 -31
-37 -46 -36 -75 5 -27 39 -27 41 -10 60 20 22 31 25 40 10z m-48 -79 c16 -38
18 -51 8 -55 -7 -2 -15 4 -18 15 -3 10 -10 19 -16 19 -7 0 -9 -10 -5 -25 11
-44 -20 -28 -40 21 -19 47 -14 72 8 41 16 -21 30 -22 22 -1 -6 17 0 34 13 34
4 0 16 -22 28 -49z"/>
<path d="M5810 8030 c-8 -5 -12 -11 -9 -14 2 -3 11 -1 19 4 8 5 12 11 9 14 -2
3 -11 1 -19 -4z"/>
<path d="M5830 8000 c-8 -5 -11 -12 -7 -16 4 -4 13 -2 19 4 15 15 7 24 -12 12z"/>
<path d="M5854 7922 c-22 -11 -50 -32 -62 -47 -20 -26 -21 -28 -4 -53 l17 -26
5 46 5 47 20 -41 20 -42 5 44 5 44 18 -26 c9 -15 17 -33 18 -40 0 -7 6 5 13
27 l12 40 19 -35 20 -35 5 45 6 45 19 -39 20 -39 7 39 c3 22 2 43 -3 48 -18
19 -122 18 -165 -2z"/>
<path d="M6053 7880 c8 -20 14 -25 19 -17 12 18 10 25 -11 37 -18 9 -18 8 -8
-20z"/>
<path d="M6071 7798 c-1 -47 -11 -48 -31 -5 l-15 32 -3 -37 c-4 -46 -15 -48
-32 -8 -15 35 -22 32 -27 -10 -2 -19 7 -49 22 -78 l24 -47 1 50 0 50 24 -40
24 -40 4 40 3 40 20 -32 c22 -36 36 -42 33 -15 -1 9 0 26 1 37 1 17 5 15 22
-13 28 -43 34 -35 19 27 -14 61 -40 89 -40 45 -1 -31 -3 -29 -37 23 -10 16
-12 13 -12 -19z"/>
<path d="M5861 7758 c-1 -47 -12 -48 -34 -5 l-16 32 -2 -30 c-1 -16 -1 -33 0
-37 3 -19 -19 -5 -39 25 l-21 32 6 -38 c12 -71 45 -117 45 -64 1 21 2 20 25
-8 l25 -30 0 33 c0 40 14 41 30 2 17 -41 30 -38 30 8 l0 37 23 -35 22 -35 3
34 c4 35 -24 111 -40 111 -4 0 -8 -15 -8 -32 -1 -35 -3 -33 -37 19 -10 16 -12
13 -12 -19z"/>
<path d="M6059 7605 l-4 -40 -20 35 -20 35 -5 -45 -6 -45 -19 40 -19 40 -4
-37 c-4 -46 -15 -48 -32 -8 -16 39 -30 38 -30 0 0 -35 27 -50 90 -50 77 0 159
54 144 94 -9 23 -24 9 -24 -22 -1 -29 -5 -25 -36 25 -10 16 -12 13 -15 -22z"/>
<path d="M5850 7599 c0 -9 7 -22 15 -29 19 -16 19 0 0 26 -12 16 -14 16 -15 3z"/>
<path d="M6172 7918 c2 -6 10 -14 16 -16 7 -2 10 2 6 12 -7 18 -28 22 -22 4z"/>
<path d="M5778 7545 c-16 -35 -2 -43 27 -15 27 26 26 41 -2 19 -15 -12 -16
-12 -10 4 10 26 -2 20 -15 -8z"/>
<path d="M3141 9599 c-65 -45 -170 -107 -308 -183 -133 -73 -165 -97 -54 -42
142 72 392 224 407 248 8 13 2 10 -45 -23z"/>
<path d="M3407 9545 c-36 -32 -224 -143 -357 -212 -272 -140 -638 -278 -1016
-383 -82 -23 -182 -51 -221 -64 -40 -12 -73 -22 -73 -21 0 1 5 16 11 33 9 27
20 34 80 54 38 12 67 24 65 26 -5 4 -110 -26 -143 -40 -38 -18 -223 -199 -262
-257 -42 -61 -90 -169 -109 -241 -11 -42 -72 -377 -87 -480 -22 -148 -85 -438
-140 -650 -36 -135 -99 -384 -140 -555 -41 -170 -87 -358 -102 -417 -15 -59
-25 -109 -23 -111 12 -9 220 -86 272 -101 104 -29 481 -104 632 -126 82 -11
207 -21 279 -22 l129 -1 -5 -24 c-5 -29 9 -18 16 12 4 17 5 16 7 -5 1 -23 2
-24 11 -5 7 15 8 9 5 -22 -2 -24 -3 -43 -1 -43 18 0 50 94 80 235 57 266 75
317 89 248 11 -62 37 -235 50 -348 36 -289 39 -391 32 -975 -3 -316 -8 -588
-10 -605 -3 -16 -7 -106 -11 -200 -3 -93 -7 -183 -10 -200 -2 -16 -6 -61 -9
-100 -3 -38 -17 -221 -31 -405 -13 -184 -27 -357 -30 -385 -3 -27 -9 -176 -15
-330 -14 -393 -48 -925 -80 -1240 -11 -104 -24 -289 -30 -410 -5 -121 -12
-233 -15 -250 -3 -16 -9 -122 -15 -235 -6 -112 -15 -223 -20 -246 -6 -24 -13
-81 -16 -129 -7 -81 -6 -87 16 -110 27 -29 66 -41 166 -50 l71 -7 8 244 c4
133 9 275 10 313 2 39 5 138 6 220 1 83 8 242 14 355 7 113 13 445 14 739 1
294 6 602 11 685 5 83 12 196 16 251 5 92 28 369 39 475 21 203 29 321 50 765
4 66 12 233 20 370 8 138 19 340 25 450 6 110 17 283 25 385 8 102 16 221 19
265 3 44 8 125 11 180 4 65 1 136 -8 205 -8 58 -27 204 -42 325 -15 121 -40
283 -55 360 -16 77 -36 196 -44 265 -9 69 -27 211 -41 315 -83 631 -101 840
-112 1325 l-6 285 64 22 c35 12 71 24 80 28 20 7 26 -53 34 -345 3 -107 7
-238 10 -290 3 -52 7 -174 10 -270 3 -96 10 -238 15 -315 6 -77 14 -207 20
-290 5 -82 14 -261 20 -398 9 -215 14 -271 44 -425 73 -374 86 -545 61 -763
-15 -133 -31 -400 -45 -774 -5 -143 -12 -314 -15 -380 -3 -66 -10 -241 -15
-390 -10 -280 -17 -431 -25 -550 -3 -38 -7 -108 -10 -155 -3 -47 -15 -204 -27
-350 -19 -233 -22 -356 -24 -1030 -2 -421 -8 -884 -13 -1030 -6 -146 -14 -448
-17 -672 l-7 -407 414 -2 c228 -2 485 -3 572 -3 l157 -1 5 150 c3 83 10 251
16 375 7 140 12 805 14 1760 1 844 5 1639 8 1765 4 127 9 374 12 550 3 176 8
387 12 468 5 122 4 151 -8 158 -9 5 20 9 78 9 69 0 91 -3 88 -12 -14 -48 -31
-1288 -29 -2188 1 -327 2 -962 4 -1410 1 -508 -3 -879 -10 -985 -6 -93 -13
-276 -17 -405 l-6 -235 643 0 643 0 4 635 c2 349 5 1441 6 2425 2 1534 9 2370
22 2450 2 11 4 66 4 123 l1 102 69 0 68 0 7 38 c3 20 6 119 6 220 l0 182 -65
0 -65 0 0 403 c0 404 -7 758 -16 832 -2 22 -7 314 -10 649 -5 501 -3 610 8
618 10 8 9 9 -4 5 -12 -4 -18 2 -23 23 l-6 28 -47 -18 c-26 -10 -68 -27 -95
-39 -72 -33 -310 -63 -502 -64 -215 0 -368 22 -450 67 -33 18 -72 36 -86 39
-26 7 -27 5 -34 -50 -4 -31 -4 -447 0 -924 l8 -868 -26 -6 c-15 -4 -45 -4 -69
-1 -24 3 -51 5 -61 5 -17 1 -18 9 -12 94 9 148 11 1624 1 1712 -8 76 -7 79 10
65 18 -14 18 -14 3 5 -11 13 -14 33 -12 59 4 34 1 42 -31 68 -34 28 -196 241
-196 258 0 5 -15 35 -33 67 -19 33 -37 73 -41 89 -12 49 -48 144 -55 144 -3 0
-19 -12 -34 -25z m-60 -1652 c22 -43 57 -107 77 -142 20 -35 34 -66 31 -69 -2
-3 -37 -7 -77 -10 l-73 -4 -55 108 c-30 60 -56 112 -58 116 -3 6 96 78 108 78
3 0 24 -35 47 -77z m-120 -133 c26 -49 53 -90 60 -90 14 0 19 -135 5 -144 -23
-14 -79 -16 -96 -3 -41 30 -10 104 47 109 15 1 27 8 27 16 0 11 -12 13 -52 10
-29 -3 -54 -11 -56 -17 -6 -17 -32 -13 -32 4 0 9 -14 43 -31 76 -17 34 -27 64
-24 68 11 10 89 60 97 60 4 1 28 -39 55 -89z m-151 -60 c10 -22 25 -40 32 -40
10 0 13 -18 10 -77 l-3 -77 -34 -9 c-51 -13 -81 4 -81 46 0 38 27 69 63 72 12
1 24 9 25 19 3 13 -1 17 -15 13 -47 -14 -113 -19 -114 -8 -1 6 -2 15 -3 20 -1
9 82 79 95 80 3 1 14 -17 25 -39z m469 -46 c13 -13 14 -19 4 -25 -7 -4 -21 -3
-30 2 -10 5 -20 5 -23 0 -3 -5 10 -12 30 -15 31 -6 35 -10 32 -34 -4 -35 -45
-56 -82 -42 -14 5 -26 16 -26 25 0 17 21 20 36 5 12 -12 44 -3 44 11 0 5 -13
9 -30 9 -41 0 -58 32 -30 60 24 24 53 26 75 4z m-105 -48 c0 -51 -15 -72 -57
-79 -45 -9 -79 19 -69 57 11 43 40 65 85 64 l41 0 0 -42z m-282 -41 c-4 -66
-22 -78 -26 -16 -4 49 2 71 18 71 7 0 10 -20 8 -55z m-178 -15 c0 -51 -2 -58
-22 -64 -75 -20 -114 13 -87 70 16 32 42 48 82 50 26 2 27 0 27 -56z m603
-547 c-7 -2 -19 -2 -25 0 -7 3 -2 5 12 5 14 0 19 -2 13 -5z m885 -77 c9 -10
34 -488 25 -497 -4 -4 -26 -10 -48 -14 l-41 -6 -13 76 c-16 97 -76 219 -132
270 -52 47 -132 84 -198 92 l-50 6 -2 -559 c-3 -703 -4 -656 15 -691 19 -38
71 -60 160 -69 l66 -7 0 -48 0 -49 -297 0 c-164 0 -335 -3 -380 -7 l-83 -6 0
51 c0 56 -7 50 95 67 51 9 91 30 109 58 8 12 20 60 25 107 16 131 31 711 24
944 l-6 208 -51 -6 c-100 -13 -199 -84 -246 -176 -28 -55 -60 -182 -60 -238 0
-36 -3 -43 -16 -38 -9 3 -23 6 -32 6 -40 1 -42 10 -46 226 -2 115 -2 230 1
256 l5 47 101 4 c157 6 1067 0 1075 -7z m99 -448 c-3 -7 -5 -2 -5 12 0 14 2
19 5 13 2 -7 2 -19 0 -25z m0 -170 c-3 -8 -6 -5 -6 6 -1 11 2 17 5 13 3 -3 4
-12 1 -19z m-480 -285 c-1 -54 -3 -10 -3 97 0 107 2 151 3 98 2 -54 2 -142 0
-195z m415 90 c2 -82 2 -151 0 -155 -2 -5 -70 -8 -153 -8 l-149 0 0 150 0 149
98 4 c53 1 120 4 149 5 l52 2 3 -147z m686 127 l92 0 0 -150 0 -150 -149 0
c-89 0 -151 4 -153 10 -1 5 -2 76 0 156 l3 146 57 -6 c31 -3 99 -5 150 -6z
m-1619 -127 c-1 -192 10 -177 -147 -181 l-132 -3 0 155 0 156 140 0 140 0 -1
-127z m-1312 -175 c-3 -8 -6 -5 -6 6 -1 11 2 17 5 13 3 -3 4 -12 1 -19z m1856
-575 c-7 -2 -19 -2 -25 0 -7 3 -2 5 12 5 14 0 19 -2 13 -5z"/>
<path d="M3217 7593 c-13 -12 -7 -53 7 -53 30 0 46 13 46 36 0 18 -5 24 -23
24 -13 0 -27 -3 -30 -7z"/>
<path d="M3036 7568 c-18 -26 -13 -38 19 -38 28 0 45 37 24 51 -21 13 -26 11
-43 -13z"/>
<path d="M3355 7600 c-17 -19 -17 -22 -3 -36 12 -13 20 -14 37 -5 25 14 26 24
5 45 -19 20 -17 20 -39 -4z"/>
<path d="M2899 7549 c-13 -25 0 -43 27 -37 12 2 20 13 22 31 3 22 -1 27 -17
27 -11 0 -25 -9 -32 -21z"/>
<path d="M2630 9310 c-19 -11 -31 -19 -27 -20 11 0 67 29 67 35 0 7 -1 7 -40
-15z"/>
<path d="M5248 8844 c-16 -8 -28 -17 -28 -19 0 -6 52 16 65 27 15 13 -7 9 -37
-8z"/>
<path d="M7000 6010 c0 -20 -2 -22 -10 -10 -27 41 -2 -178 26 -232 15 -30 34
-37 34 -14 0 8 5 16 12 18 18 6 17 119 -2 142 -10 14 -11 17 -2 12 11 -7 12
-4 3 13 -7 12 -9 27 -5 34 5 6 -1 5 -11 -3 -17 -14 -18 -14 -6 9 8 15 9 21 2
17 -7 -5 -11 2 -12 16 0 13 -3 17 -6 9 -5 -11 -7 -11 -14 0 -6 10 -9 7 -9 -11z"/>
<path d="M2142 5928 c-8 -95 -12 -130 -17 -138 -3 -5 3 -13 12 -19 10 -6 13
-11 6 -11 -12 0 -12 -17 0 -37 4 -6 5 -30 2 -52 -5 -45 0 -49 33 -25 14 10 21
22 17 31 -4 13 -3 13 9 4 11 -9 17 -5 29 21 18 39 34 103 41 173 5 44 4 47 -7
26 -16 -31 -26 -31 -46 -1 -9 14 -11 21 -3 16 6 -4 12 -3 12 3 0 18 -20 23
-26 6 -6 -14 -8 -14 -21 2 -8 10 -12 12 -8 6 3 -7 1 -13 -4 -13 -6 0 -11 5
-11 10 0 15 -16 12 -18 -2z m18 -194 c0 -8 -5 -12 -10 -9 -6 4 -8 11 -5 16 9
14 15 11 15 -7z m14 -40 c3 -8 2 -12 -4 -9 -6 3 -10 10 -10 16 0 14 7 11 14
-7z m5 -30 c6 4 11 5 11 2 0 -3 -8 -10 -18 -15 -14 -8 -18 -5 -19 12 -2 16 0
18 6 8 5 -7 14 -10 20 -7z"/>
</g>
</svg>
