<?xml version="1.0" standalone="no"?>
<!DOCTYPE svg PUBLIC "-//W3C//DTD SVG 20010904//EN"
 "http://www.w3.org/TR/2001/REC-SVG-20010904/DTD/svg10.dtd">
<svg version="1.0" xmlns="http://www.w3.org/2000/svg"
 width="230.000000pt" height="220.000000pt" viewBox="0 0 230.000000 220.000000"
 preserveAspectRatio="xMidYMid meet">

<g transform="translate(0.000000,220.000000) scale(0.100000,-0.100000)"
fill="#000000" stroke="none">
<path d="M2042 2166 c-140 -24 -186 -36 -201 -51 -10 -11 -53 -110 -96 -220
-43 -110 -81 -204 -86 -209 -8 -9 -199 -16 -1084 -36 -275 -6 -510 -13 -522
-16 -13 -2 -29 -14 -37 -27 -14 -20 -10 -61 30 -397 27 -221 51 -384 59 -396
8 -13 28 -23 52 -27 21 -3 283 -25 582 -49 l545 -42 125 -99 c130 -101 150
-124 151 -168 0 -56 26 -54 -755 -59 -784 -5 -755 -3 -755 -61 0 -44 23 -59
91 -59 32 0 59 -2 59 -5 0 -2 -11 -21 -25 -41 -29 -43 -32 -82 -8 -131 20 -44
88 -78 134 -68 66 15 119 93 104 153 -4 15 -18 42 -31 59 l-25 33 556 0 557 0
-25 -30 c-50 -59 -47 -131 8 -179 47 -41 86 -47 138 -22 44 21 77 69 77 112 0
39 -29 89 -65 110 l-36 22 38 23 c87 53 113 153 63 243 -23 41 -55 71 -188
181 l-43 35 246 630 c135 347 249 633 254 638 4 4 81 20 171 36 137 24 167 33
182 51 24 30 23 46 -7 75 -29 30 -7 30 -233 -9z m-687 -706 l0 -115 -112 -3
-113 -3 0 115 0 115 88 4 c48 2 98 3 112 3 l25 -1 0 -115z m255 115 c0 -3 -21
-57 -46 -120 l-46 -115 -59 0 -59 0 0 120 0 120 105 0 c58 0 105 -2 105 -5z
m-520 -120 l0 -115 -115 0 -115 0 0 109 0 110 28 4 c15 2 66 5 115 6 l87 1 0
-115z m-535 -5 l0 -105 -112 -3 -113 -3 0 105 0 105 88 4 c48 2 98 3 112 3
l25 -1 0 -105z m265 0 l0 -110 -110 0 -110 0 0 110 0 110 110 0 110 0 0 -110z
m-530 -5 l0 -105 -85 0 c-47 0 -85 3 -85 8 0 4 -5 47 -11 96 -9 72 -8 90 3 97
7 5 50 9 96 9 l82 0 0 -105z m0 -250 l0 -105 -69 0 -68 0 -12 88 c-17 133 -23
122 69 122 l80 0 0 -105z m268 3 l-3 -103 -112 -3 -113 -3 0 106 0 105 115 0
116 0 -3 -102z m262 -3 l0 -105 -110 0 -110 0 0 105 0 105 110 0 110 0 0 -105z
m270 0 l0 -105 -115 0 -115 0 0 105 0 105 115 0 115 0 0 -105z m268 3 l-3
-103 -112 -3 -113 -3 0 106 0 105 115 0 116 0 -3 -102z m141 95 c-1 -23 -76
-197 -85 -200 -21 -7 -32 106 -18 176 6 30 9 31 55 31 27 0 49 -3 48 -7z
m-1209 -318 l0 -75 -54 0 c-30 0 -57 3 -59 8 -3 4 -8 37 -12 75 l-7 67 66 0
66 0 0 -75z m268 -12 l3 -83 -48 0 c-26 0 -78 3 -115 7 l-68 6 0 79 0 79 113
-3 112 -3 3 -82z m262 -11 l0 -98 -107 8 c-59 5 -108 9 -109 11 -3 3 -6 91 -5
140 l1 37 110 0 110 0 0 -98z m268 -9 l-3 -108 -55 3 c-30 1 -81 5 -112 8
l-58 6 0 99 0 99 115 0 116 0 -3 -107z m270 46 c2 -42 -3 -72 -21 -115 -26
-66 -16 -63 -154 -48 l-53 5 0 110 0 110 113 -3 112 -3 3 -56z m-1023 -804
c14 -13 25 -36 25 -50 0 -30 -49 -85 -75 -85 -24 0 -72 27 -79 45 -21 55 18
115 74 115 19 0 40 -9 55 -25z m1250 0 c31 -30 32 -73 5 -103 -38 -40 -93 -37
-127 7 -35 45 7 121 67 121 19 0 40 -9 55 -25z"/>
<path d="M252 158 c-28 -28 -1 -75 37 -63 11 3 23 15 26 26 12 38 -35 65 -63
37z"/>
<path d="M1502 158 c-32 -32 2 -79 43 -60 39 18 27 72 -15 72 -9 0 -21 -5 -28
-12z"/>
</g>
</svg>
